<?xml version="1.0" encoding="UTF-8" standalone="no"?>
<!-- Created with Inkscape (http://www.inkscape.org/) -->

<svg
   width="171.89192mm"
   height="96.575951mm"
   viewBox="0 0 171.89192 96.575951"
   version="1.1"
   id="svg1"
   xml:space="preserve"
   xmlns="http://www.w3.org/2000/svg"
   xmlns:svg="http://www.w3.org/2000/svg"><defs
     id="defs1" /><g
     id="layer1"
     transform="translate(26.95189,-32.807278)"><path
       id="path10"
       style="fill:#1a1a1a;stroke-width:0.264583"
       d="m 64.021415,32.807817 c -3.351698,-0.088 -11.07931,10.570737 -13.531474,18.038692 -0.210895,0.642271 -0.414366,1.407971 -0.60358,2.273246 -2.303962,-1.248251 -5.041922,-1.878621 -6.697266,-2.706295 -2.205112,-1.102557 -1.108747,-3.51462 -6.307109,-3.220992 -0.742623,0.04195 -1.603588,0.133682 -2.608109,0.286288 -4.823508,0.732785 -9.243826,5.064755 -12.352218,9.465055 C 22.123975,47.232158 10.908279,47.681352 9.4449015,48.426501 7.8324052,49.247581 2.6889766,60.426379 2.878894,61.590039 3.0688115,62.7537 4.453033,62.206482 7.2290161,62.12334 10.005,62.040197 12.25826,73.210422 7.909078,75.452759 2.749289,78.113026 -0.14455906,67.675143 -0.36483561,66.176839 -0.58511251,64.678535 1.1884583,61.923262 -0.34003092,60.881038 -1.86852,59.838814 -10.729384,73.368461 -13.573848,73.626514 c -2.844469,0.258053 -4.387344,-5.590669 -3.763078,-8.936923 0.624266,-3.346257 5.424877,-11.795142 2.922819,-12.411645 -2.502059,-0.616505 -11.958727,15.086858 -12.492261,21.292757 -0.533536,6.2059 3.70964,12.062694 8.166427,11.911418 4.456787,-0.151276 9.9337602,-6.721037 9.9337602,-6.721037 0,0 1.944955,9.354692 10.0448649,8.451164 5.2483314,-0.585444 10.9224119,-6.238152 15.0910689,-13.708207 -0.0445,3.179089 0.455575,6.251359 1.815393,8.248592 2.688138,3.9482 9.860406,6.378404 14.44873,4.452441 5.377289,-2.257133 13.062906,-9.288449 16.63051,-13.299447 1.047337,7.251545 3.841733,13.459379 9.700183,14.05599 9.083719,0.925066 15.102626,-4.945328 18.22266,-10.774019 1.254951,4.962993 3.585042,9.010239 7.677568,10.243302 -2.964246,0.604687 -6.83808,1.829465 -12.496912,4.293795 -10.416532,4.536234 -14.784747,10.836385 -18.060913,20.664885 -3.276166,9.8285 4.499636,16.57212 16.128731,17.80925 11.844603,1.26006 21.840828,-4.28434 24.612968,-6.13244 2.772143,-1.84809 7.728739,-7.81232 6.972699,-8.14834 -0.75604,-0.33602 -4.956211,2.85584 -9.492442,4.45192 -4.536234,1.59609 -10.332807,3.78046 -21.58938,1.42834 -11.256574,-2.35212 -12.096718,-11.92867 -11.256677,-13.52475 0.840044,-1.59608 14.844652,-9.025837 21.616252,-11.283037 6.771598,-2.257201 14.731518,2.613695 27.086717,5.702497 11.50799,2.877 17.10681,0.71253 24.47241,-1.66347 7.3656,-2.375998 8.9103,-8.553492 11.6427,-11.879892 2.7324,-3.3264 -7.00947,-14.13727 -9.38547,-19.958471 -2.376,-5.821201 2.31687,-13.840235 2.79207,-14.374834 0.4752,-0.534601 -0.95069,-1.781803 -1.72289,-1.781803 -0.7722,0 -10.51371,5.821152 -10.81071,7.603153 -0.297,1.782 -5.04901,12.711453 -5.52421,12.889653 -0.4752,0.178199 -1.84156,-0.772 -2.55436,-3.979602 -0.7128,-3.207599 2.25744,-16.751153 2.73264,-18.354952 0.4752,-1.603801 -0.95031,-3.860802 -2.01951,-3.979602 -1.0692,-0.118798 -2.3761,2.138609 -3.5047,3.742407 -0.92126,1.309167 -4.09858,3.607754 -6.52725,8.543665 -2.12575,-3.433366 -6.1334,-5.671768 -11.117664,-5.314921 -3.990498,0.285699 -9.814388,4.196126 -9.814388,4.196126 0,0 0.594152,-7.484589 1.425753,-11.404989 0.831599,-3.9204 2.613878,-10.335385 0.594279,-11.642183 -0.09467,-0.06126 -0.206379,-0.09329 -0.332796,-0.09715 -2.570483,-0.07859 -11.360008,11.375673 -12.379089,20.887097 -0.04042,0.377206 -0.07972,0.771438 -0.117306,1.181324 -0.390479,-0.372832 -0.803051,-0.689134 -1.232483,-0.943612 -3.207599,-1.900801 -5.526316,-4.221289 -8.525061,-3.465938 -2.127433,0.535877 -6.206339,3.465938 -6.206339,3.465938 0,0 0.118896,-5.167821 1.306897,-8.850623 0.469296,-1.606303 5.714695,-13.275607 2.639115,-13.69012 -0.05096,-0.0069 -0.102861,-0.01101 -0.156063,-0.0124 z M 32.830037,60.058866 c 0.171639,0.0071 0.321055,0.03159 0.442351,0.0739 3.655299,1.275 8.099955,3.548467 8.645984,6.415112 0.450101,2.363031 -2.041696,10.8222 -5.250843,10.836548 -5.815675,0.026 -9.70219,-6.510616 -9.870198,-8.946741 -0.168009,-2.436124 -0.382878,-4.422367 1.176155,-6.131925 1.364154,-1.495864 3.655083,-2.296746 4.856551,-2.246892 z m 31.63993,4.303614 c 0.538632,-0.01959 1.107705,-0.0028 1.701705,0.02687 2.375998,0.1188 4.573726,1.663393 5.345926,4.811593 0.7722,3.148201 1.366412,7.781298 -2.850988,7.484298 -4.2174,-0.297 -9.310006,-8.697211 -8.078577,-10.51357 0.923572,-1.36227 2.266037,-1.750422 3.881934,-1.809191 z m 27.955399,0.396875 c 1.841232,-0.0441 3.205475,0.0513 4.274675,0.348299 2.1384,0.594 2.64216,2.626768 2.52336,7.141166 -0.11881,4.5144 -2.33527,5.099851 -5.66167,3.79305 -3.3264,-1.306801 -6.347137,-7.853519 -5.369181,-9.632487 0.654076,-1.189808 2.391585,-1.605931 4.232816,-1.650028 z m 12.797154,12.037508 c 0.64692,2.616886 2.02514,4.54788 4.4297,5.056539 6.1776,1.306798 13.54336,-4.633309 13.54336,-4.633309 0,0 0.87864,2.500164 2.64273,5.94434 1.76409,3.444174 6.21624,5.712179 5.29219,6.804236 -0.92405,1.092055 -3.17653,2.196015 -11.91297,2.112015 -7.58115,-0.0729 -20.487235,-4.709071 -26.238192,-5.934004 5.774582,-1.431997 9.584692,-4.993995 12.243182,-9.349817 z" /></g></svg>
