<?xml version="1.0" encoding="UTF-8" standalone="no"?>
<!-- Created with Inkscape (http://www.inkscape.org/) -->

<svg
   width="171.89162mm"
   height="96.575943mm"
   viewBox="0 0 171.89162 96.575943"
   version="1.1"
   id="svg1"
   xml:space="preserve"
   xmlns="http://www.w3.org/2000/svg"
   xmlns:svg="http://www.w3.org/2000/svg"><defs
     id="defs1" /><g
     id="layer1"
     transform="translate(26.951698,-32.807284)"><path
       id="path7"
       d="m -3.0681975,109.93958 c -0.1515845,0 -0.2549374,0.0207 -0.3100586,0.062 -0.055121,0.0386 -0.082682,0.10749 -0.082682,0.2067 v 0.53744 c 0,0.0992 0.027561,0.16951 0.082682,0.21084 0.055122,0.0386 0.1584743,0.0579 0.3100586,0.0579 0.1515844,0 0.2549372,-0.0193 0.3100584,-0.0579 0.055121,-0.0413 0.082682,-0.11162 0.082682,-0.21084 v -0.53744 c 0,-0.0992 -0.027561,-0.1681 -0.082682,-0.2067 -0.055122,-0.0413 -0.1584742,-0.062 -0.3100584,-0.062 z m 21.0591745,0.19017 c -0.460265,0 -0.818554,0.12815 -1.07487,0.38447 -0.253558,0.25356 -0.380338,0.60771 -0.380338,1.06247 v 0.50849 h -0.818555 c -0.09371,0 -0.161231,0.022 -0.202571,0.0661 -0.03859,0.0413 -0.05788,0.113 -0.05788,0.21497 0,0.10201 0.01929,0.17504 0.05788,0.21911 0.04134,0.0413 0.108865,0.062 0.202571,0.062 h 0.818555 v 2.36471 h -0.818555 c -0.09371,0 -0.161231,0.0221 -0.202571,0.0662 -0.03859,0.0413 -0.05788,0.11299 -0.05788,0.21497 0,0.102 0.01929,0.17505 0.05788,0.21911 0.04134,0.0413 0.108865,0.062 0.202571,0.062 h 2.869076 c 0.0937,0 0.159851,-0.0207 0.198437,-0.062 0.04134,-0.0441 0.06201,-0.11713 0.06201,-0.21911 0,-0.10198 -0.02067,-0.17364 -0.06201,-0.21497 -0.03858,-0.0441 -0.104731,-0.0662 -0.198437,-0.0662 h -1.430404 v -2.36471 h 1.430404 c 0.0937,0 0.159851,-0.0207 0.198437,-0.062 0.04134,-0.0441 0.06201,-0.11714 0.06201,-0.21911 0,-0.10198 -0.02067,-0.17364 -0.06201,-0.21497 -0.03858,-0.0441 -0.104731,-0.0661 -0.198437,-0.0661 h -1.430404 v -0.45475 c 0,-0.59807 0.278363,-0.8971 0.835091,-0.8971 0.303168,0 0.629763,0.0675 0.979785,0.20257 0.03583,0.0138 0.06891,0.0207 0.09922,0.0207 0.09922,0 0.168119,-0.0785 0.206706,-0.23565 0.0083,-0.0413 0.0124,-0.0772 0.0124,-0.10748 0,-0.1323 -0.06614,-0.22325 -0.198437,-0.27285 -0.363802,-0.14056 -0.730361,-0.21084 -1.099675,-0.21084 z m -32.609895,0.0207 c -0.09371,0 -0.16123,0.0221 -0.202571,0.0661 -0.03858,0.0413 -0.05788,0.113 -0.05788,0.21498 0,0.102 0.01929,0.17504 0.05788,0.2191 0.04134,0.0413 0.108865,0.062 0.202571,0.062 h 1.128614 v 4.29947 h -1.293978 c -0.09371,0 -0.161231,0.0221 -0.202572,0.0662 -0.03858,0.0413 -0.05788,0.11299 -0.05788,0.21497 0,0.102 0.01929,0.17505 0.05788,0.21911 0.04134,0.0413 0.108865,0.062 0.202572,0.062 h 3.241149 c 0.09371,0 0.159852,-0.0207 0.198437,-0.062 0.04134,-0.0441 0.06201,-0.11713 0.06201,-0.21911 0,-0.10198 -0.02067,-0.17364 -0.06201,-0.21497 -0.03858,-0.0441 -0.104731,-0.0662 -0.198437,-0.0662 h -1.327052 v -4.58059 c 0,-0.10199 -0.02067,-0.17364 -0.06201,-0.21498 -0.03858,-0.0441 -0.104731,-0.0661 -0.198438,-0.0661 z m 5.0766967,0 c -0.093707,0 -0.1612303,0.0221 -0.2025716,0.0661 -0.038585,0.0413 -0.057878,0.113 -0.057878,0.21498 0,0.102 0.019292,0.17504 0.057878,0.2191 0.041341,0.0413 0.108865,0.062 0.2025716,0.062 h 1.1286133 v 4.29947 h -1.2939779 c -0.093706,0 -0.1612302,0.0221 -0.2025716,0.0662 -0.038585,0.0413 -0.057878,0.11299 -0.057878,0.21497 0,0.102 0.019292,0.17505 0.057878,0.21911 0.041341,0.0413 0.108865,0.062 0.2025716,0.062 H -6.46644 c 0.093707,0 0.1598525,-0.0207 0.1984375,-0.062 0.041341,-0.0441 0.062012,-0.11713 0.062012,-0.21911 0,-0.10198 -0.02067,-0.17364 -0.062012,-0.21497 -0.038585,-0.0441 -0.1047308,-0.0662 -0.1984375,-0.0662 h -1.3270508 v -4.58059 c 0,-0.10199 -0.02067,-0.17364 -0.062012,-0.21498 -0.038585,-0.0441 -0.1047309,-0.0661 -0.1984375,-0.0661 z m 30.4601513,0 c -0.09371,0 -0.161231,0.0221 -0.202571,0.0661 -0.03859,0.0413 -0.05788,0.113 -0.05788,0.21498 0,0.102 0.01929,0.17504 0.05788,0.2191 0.04134,0.0413 0.108865,0.062 0.202571,0.062 h 1.128614 v 4.29947 h -1.293978 c -0.09371,0 -0.161232,0.0221 -0.202572,0.0662 -0.03859,0.0413 -0.05788,0.11299 -0.05788,0.21497 0,0.102 0.01929,0.17505 0.05788,0.21911 0.04134,0.0413 0.108865,0.062 0.202572,0.062 h 3.241146 c 0.0937,0 0.15985,-0.0207 0.198437,-0.062 0.04134,-0.0441 0.06201,-0.11713 0.06201,-0.21911 0,-0.10198 -0.02067,-0.17364 -0.06201,-0.21497 -0.03859,-0.0441 -0.104731,-0.0662 -0.198437,-0.0662 h -1.327051 v -4.58059 c 0,-0.10199 -0.02067,-0.17364 -0.06201,-0.21498 -0.03859,-0.0441 -0.104731,-0.0661 -0.198437,-0.0661 z m -44.54095,0.42581 c -0.311437,0 -0.5898,0.0565 -0.835091,0.1695 -0.242535,0.11024 -0.432704,0.27009 -0.570508,0.47956 -0.135048,0.20946 -0.202572,0.45613 -0.202572,0.74 0,0.27561 0.06063,0.49885 0.181901,0.66973 0.124024,0.16812 0.296279,0.30179 0.516765,0.40101 0.129536,0.0579 0.270095,0.10609 0.421679,0.14469 0.15434,0.0386 0.344509,0.0799 0.570508,0.12403 0.214974,0.0441 0.384473,0.0813 0.508496,0.11162 0.124024,0.0275 0.238401,0.0648 0.343132,0.11162 0.165364,0.0717 0.290766,0.16261 0.376204,0.27285 0.08819,0.10749 0.132292,0.24805 0.132292,0.42168 0,0.2508 -0.09509,0.45199 -0.285254,0.60358 -0.187413,0.15159 -0.457509,0.22738 -0.810287,0.22738 -0.361046,0 -0.665592,-0.0854 -0.913639,-0.25632 -0.245291,-0.17087 -0.424436,-0.41616 -0.537435,-0.73587 -0.04134,-0.11575 -0.121267,-0.17363 -0.239778,-0.17363 -0.113,0 -0.192926,0.0207 -0.239779,0.062 -0.04685,0.0413 -0.07028,0.11024 -0.07028,0.2067 v 1.24024 c 0,0.0965 0.02343,0.16537 0.07028,0.2067 0.04685,0.0413 0.126779,0.062 0.239779,0.062 0.112999,0 0.192925,-0.0207 0.239778,-0.062 0.04685,-0.0413 0.07028,-0.11024 0.07028,-0.2067 v -0.32246 c 0.173633,0.19292 0.377582,0.34037 0.611849,0.44235 0.237023,0.0992 0.493338,0.14882 0.768945,0.14882 0.369315,0 0.684885,-0.0606 0.946713,-0.1819 0.264583,-0.12127 0.464398,-0.28938 0.599446,-0.50436 0.135048,-0.21772 0.202572,-0.46991 0.202572,-0.75654 0,-0.34451 -0.07855,-0.61736 -0.235645,-0.81856 -0.15434,-0.20395 -0.369314,-0.36242 -0.644921,-0.47542 -0.135048,-0.0551 -0.272852,-0.0978 -0.413412,-0.12816 -0.137804,-0.0331 -0.325217,-0.073 -0.56224,-0.11989 -0.21773,-0.0413 -0.391363,-0.0772 -0.520898,-0.10748 -0.129536,-0.0331 -0.242535,-0.0744 -0.338997,-0.12403 -0.107485,-0.0551 -0.190167,-0.12127 -0.248047,-0.19843 -0.05788,-0.0772 -0.08682,-0.17226 -0.08682,-0.28526 0,-0.23702 0.08268,-0.42581 0.248047,-0.56637 0.168121,-0.14056 0.403765,-0.21084 0.706934,-0.21084 0.305925,0 0.578776,0.0661 0.818555,0.19844 0.239778,0.12953 0.425814,0.3197 0.558105,0.5705 0.03859,0.0717 0.110243,0.10749 0.214974,0.10749 0.112999,0 0.192925,-0.0207 0.239779,-0.062 0.04685,-0.0413 0.07028,-0.11024 0.07028,-0.20671 v -0.95084 c 0,-0.0965 -0.02343,-0.16538 -0.07028,-0.20671 -0.04685,-0.0413 -0.12678,-0.062 -0.239779,-0.062 -0.112998,0 -0.192926,0.0207 -0.239779,0.062 -0.04685,0.0413 -0.07028,0.11024 -0.07028,0.20671 v 0.25218 c -0.159852,-0.15986 -0.352777,-0.28663 -0.578776,-0.38034 -0.225998,-0.0937 -0.460264,-0.14056 -0.702799,-0.14056 z m 5.34541,1.08727 c -0.383095,0 -0.72347,0.0841 -1.021126,0.25218 -0.297656,0.16537 -0.530545,0.39964 -0.698666,0.7028 -0.16812,0.30318 -0.252181,0.65182 -0.252181,1.04593 0,0.41342 0.07717,0.77033 0.231511,1.07074 0.15434,0.30041 0.37896,0.53054 0.67386,0.6904 0.294901,0.15985 0.650435,0.23977 1.066602,0.23977 0.292145,0 0.58291,-0.0331 0.872298,-0.0992 0.289388,-0.0662 0.540191,-0.15297 0.752409,-0.26045 0.121267,-0.0606 0.181901,-0.14607 0.181901,-0.25632 0,-0.0469 -0.0124,-0.0992 -0.03721,-0.15709 -0.06063,-0.14608 -0.139182,-0.21911 -0.235644,-0.21911 -0.03858,0 -0.0813,0.0124 -0.128158,0.0372 -0.187413,0.1075 -0.405143,0.19432 -0.65319,0.26045 -0.248047,0.0634 -0.49885,0.0951 -0.752409,0.0951 -0.410655,0 -0.728982,-0.10473 -0.95498,-0.31419 -0.223242,-0.21222 -0.344509,-0.52366 -0.363803,-0.93431 h 2.993099 c 0.09371,0 0.159851,-0.0193 0.198438,-0.0579 0.04134,-0.0386 0.06201,-0.10473 0.06201,-0.19844 -0.02205,-0.37207 -0.108865,-0.70004 -0.26045,-0.98392 -0.151584,-0.28663 -0.369314,-0.50988 -0.65319,-0.66973 -0.28112,-0.16261 -0.621495,-0.24391 -1.021126,-0.24391 z m 20.7367234,0 c -0.28112,0 -0.5443251,0.0744 -0.7896159,0.22324 -0.2425349,0.14884 -0.4547526,0.36381 -0.6366537,0.64493 v -0.4961 c 0,-0.10198 -0.02067,-0.17364 -0.062012,-0.21497 -0.038585,-0.0441 -0.1047308,-0.0661 -0.1984375,-0.0661 H 0.03238816 c -0.093706,0 -0.16123027,0.022 -0.20257157,0.0661 -0.038585,0.0413 -0.057878,0.113 -0.057878,0.21497 0,0.10201 0.019292,0.17504 0.057878,0.21911 0.041341,0.0413 0.108865,0.062 0.20257157,0.062 h 0.4216797 v 2.69544 h -0.3389974 c -0.093706,0 -0.1612303,0.0221 -0.20257157,0.0662 -0.038585,0.0413 -0.057878,0.11299 -0.057878,0.21497 0,0.102 0.019292,0.17505 0.057878,0.21911 0.041341,0.0413 0.10886487,0.062 0.20257157,0.062 H 1.4545235 c 0.093706,0 0.1598522,-0.0207 0.1984375,-0.062 0.041341,-0.0441 0.062012,-0.11713 0.062012,-0.21911 0,-0.10198 -0.02067,-0.17364 -0.062012,-0.21497 -0.038585,-0.0441 -0.1047308,-0.0662 -0.1984375,-0.0662 H 1.074185 v -1.18235 c 0,-0.29215 0.060634,-0.55673 0.181901,-0.79375 0.1212674,-0.23703 0.2824977,-0.42306 0.4836914,-0.55811 0.2039497,-0.13504 0.4230576,-0.20257 0.6573242,-0.20257 0.2204862,0 0.3872287,0.0717 0.5002279,0.21497 0.1129991,0.14332 0.1694987,0.33762 0.1694987,0.58292 v 1.93889 H 2.6864897 c -0.093706,0 -0.1612303,0.0221 -0.2025717,0.0662 -0.038585,0.0413 -0.057878,0.11299 -0.057878,0.21497 0,0.102 0.019292,0.17505 0.057878,0.21911 0.041341,0.0413 0.1088651,0.062 0.2025717,0.062 h 1.3394531 c 0.093705,0 0.1598508,-0.0207 0.1984378,-0.062 0.04134,-0.0441 0.06201,-0.11713 0.06201,-0.21911 0,-0.10198 -0.02067,-0.17364 -0.06201,-0.21497 -0.03859,-0.0441 -0.104731,-0.0662 -0.1984378,-0.0662 H 3.6869454 v -2.00091 c 0,-0.27284 -0.049609,-0.51125 -0.1488281,-0.7152 -0.099219,-0.20395 -0.2411566,-0.35967 -0.4258138,-0.46715 -0.1846572,-0.11025 -0.4023871,-0.16537 -0.6531901,-0.16537 z m 4.3821594,0 c -0.3417534,0 -0.6476774,0.0772 -0.9177721,0.23151 -0.2700957,0.15159 -0.4823137,0.37069 -0.6366537,0.65733 -0.154341,0.28663 -0.2315097,0.62287 -0.2315097,1.00872 0,0.38585 0.07717,0.72209 0.2315097,1.00872 0.15434,0.28663 0.366558,0.50712 0.6366537,0.66146 0.2700947,0.15159 0.5760187,0.22738 0.9177721,0.22738 0.5319227,0 0.9687607,-0.21498 1.3105144,-0.64492 v 0.83095 c 0,0.3142 -0.09646,0.56087 -0.2893877,0.74001 -0.192926,0.1819 -0.479558,0.27285 -0.8598957,0.27285 -0.2177297,0 -0.4451064,-0.0221 -0.6821284,-0.0661 -0.2370227,-0.0441 -0.4630207,-0.10474 -0.6779944,-0.1819 -0.03031,-0.011 -0.06063,-0.0165 -0.09095,-0.0165 -0.107489,0 -0.186037,0.0758 -0.235644,0.22738 -0.02205,0.0662 -0.03307,0.12129 -0.03307,0.16536 0,0.10747 0.05374,0.18051 0.16123,0.21911 0.2342667,0.0855 0.4864467,0.15023 0.7565424,0.1943 0.270096,0.0469 0.5374347,0.0703 0.8020184,0.0703 0.3720697,0 0.6903967,-0.062 0.9549794,-0.18603 0.264583,-0.12403 0.4657757,-0.30455 0.6035797,-0.54157 0.14056,-0.23427 0.21084,-0.51539 0.21084,-0.84336 v -3.38171 h 0.3389967 c 0.0937,0 0.159851,-0.0207 0.198438,-0.062 0.04134,-0.0441 0.06201,-0.11713 0.06201,-0.21911 0,-0.10198 -0.02067,-0.17364 -0.06201,-0.21497 -0.03859,-0.0441 -0.104731,-0.0661 -0.198438,-0.0661 H 8.4535799 c -0.09371,0 -0.1612307,0.022 -0.2025707,0.0661 -0.03859,0.0413 -0.05788,0.113 -0.05788,0.21497 v 0.33073 c -0.173634,-0.226 -0.3748267,-0.39963 -0.6035807,-0.5209 -0.228755,-0.12126 -0.4781787,-0.1819 -0.7482747,-0.1819 z m 20.5506812,0 c -0.26734,0 -0.534679,0.0331 -0.802018,0.0992 -0.264584,0.0634 -0.51263,0.15572 -0.744141,0.27699 -0.101975,0.0524 -0.152962,0.12678 -0.152962,0.22324 0,0.0441 0.01516,0.0992 0.04547,0.16536 0.06063,0.1323 0.136426,0.19844 0.227376,0.19844 0.03859,0 0.0813,-0.0124 0.128158,-0.0372 0.201193,-0.10198 0.413411,-0.18191 0.636653,-0.23978 0.223242,-0.0579 0.438216,-0.0868 0.644922,-0.0868 0.333486,0 0.574642,0.0634 0.72347,0.19017 0.151585,0.12402 0.227377,0.3197 0.227377,0.58704 v 0.3514 c -0.399632,-0.14056 -0.818554,-0.21084 -1.256771,-0.21084 -0.493338,0 -0.895725,0.10473 -1.207162,0.31419 -0.311436,0.2067 -0.467155,0.52779 -0.467155,0.96325 0,0.25081 0.06063,0.46716 0.181902,0.64906 0.121267,0.1819 0.288009,0.32108 0.500227,0.41754 0.214974,0.0937 0.461643,0.14056 0.740007,0.14056 0.294901,0 0.573264,-0.0537 0.835091,-0.16123 0.264583,-0.10748 0.509874,-0.26044 0.735872,-0.45888 0.03859,0.17363 0.121268,0.30593 0.248047,0.39687 0.129536,0.0882 0.283876,0.13229 0.463021,0.13229 h 0.264583 c 0.0937,0 0.159851,-0.0207 0.198438,-0.062 0.04134,-0.0441 0.06201,-0.11713 0.06201,-0.21911 0,-0.10198 -0.02067,-0.17364 -0.06201,-0.21497 -0.03858,-0.0441 -0.104731,-0.0662 -0.198438,-0.0662 h -0.144689 c -0.181901,0 -0.272851,-0.10886 -0.272851,-0.32659 v -1.64538 c 0,-0.45475 -0.129536,-0.79789 -0.388607,-1.02939 -0.259071,-0.23152 -0.647678,-0.34727 -1.16582,-0.34727 z m 5.287532,0 c -0.270096,0 -0.51952,0.0606 -0.748274,0.1819 -0.228755,0.12127 -0.429948,0.2949 -0.603581,0.5209 v -0.33073 c 0,-0.10198 -0.02067,-0.17364 -0.06201,-0.21497 -0.03858,-0.0441 -0.104731,-0.0661 -0.198437,-0.0661 h -0.657325 c -0.09371,0 -0.161231,0.022 -0.202571,0.0661 -0.03859,0.0413 -0.05788,0.113 -0.05788,0.21497 0,0.10201 0.01929,0.17504 0.05788,0.21911 0.04134,0.0413 0.108865,0.062 0.202571,0.062 h 0.338998 v 4.29948 h -0.42168 c -0.09371,0 -0.161231,0.0207 -0.202571,0.062 -0.03859,0.0441 -0.05788,0.11714 -0.05788,0.21911 0,0.10199 0.01929,0.17364 0.05788,0.21497 0.04134,0.0441 0.108864,0.0661 0.202571,0.0661 h 1.752865 c 0.0937,0 0.159851,-0.0221 0.198437,-0.0661 0.04134,-0.0413 0.06201,-0.11299 0.06201,-0.21497 0,-0.102 -0.02067,-0.17504 -0.06201,-0.21911 -0.03858,-0.0413 -0.104731,-0.062 -0.198437,-0.062 h -0.71107 v -1.63297 c 0.355534,0.45475 0.792372,0.68212 1.310514,0.68212 0.341754,0 0.647678,-0.0799 0.917774,-0.23977 0.270095,-0.16261 0.482313,-0.39412 0.636653,-0.69454 0.154341,-0.30317 0.231511,-0.6587 0.231511,-1.0666 0,-0.40789 -0.07717,-0.76205 -0.231511,-1.06246 -0.15434,-0.30318 -0.366558,-0.53469 -0.636653,-0.69454 -0.270096,-0.16261 -0.57602,-0.24391 -0.917774,-0.24391 z m 4.535124,0 c -0.28112,0 -0.533301,0.0441 -0.756543,0.13229 -0.220487,0.0882 -0.394119,0.21911 -0.520898,0.39274 -0.124024,0.17088 -0.186036,0.37621 -0.186036,0.61599 0,0.22875 0.05512,0.41479 0.165365,0.5581 0.112999,0.14056 0.270095,0.25081 0.471289,0.33073 0.146072,0.0579 0.305925,0.10196 0.479557,0.13229 0.173633,0.0303 0.389985,0.0593 0.649056,0.0868 0.192926,0.0193 0.3514,0.0399 0.475424,0.062 0.126779,0.0193 0.2384,0.0441 0.334863,0.0744 0.112999,0.0386 0.199816,0.0882 0.260449,0.14882 0.06063,0.0606 0.09095,0.13781 0.09095,0.23151 0,0.19292 -0.08544,0.34727 -0.256315,0.46303 -0.170877,0.11575 -0.416168,0.17363 -0.735873,0.17363 -0.385851,0 -0.694531,-0.0606 -0.926042,-0.1819 -0.23151,-0.12127 -0.396875,-0.31419 -0.496093,-0.57878 -0.02481,-0.0606 -0.05374,-0.10336 -0.08682,-0.12816 -0.03307,-0.0275 -0.07854,-0.0413 -0.136425,-0.0413 -0.113,0 -0.192926,0.0207 -0.239779,0.062 -0.04685,0.0413 -0.07028,0.11025 -0.07028,0.20671 v 0.99219 c 0,0.0965 0.02343,0.16537 0.07028,0.2067 0.04685,0.0413 0.126779,0.062 0.239779,0.062 0.112999,0 0.192925,-0.0207 0.239778,-0.062 0.04685,-0.0413 0.07028,-0.11024 0.07028,-0.2067 v -0.23151 c 0.168121,0.16812 0.36518,0.29352 0.591178,0.3762 0.225999,0.0827 0.487826,0.12402 0.785482,0.12402 0.336242,0 0.624251,-0.051 0.86403,-0.15296 0.242535,-0.10197 0.425814,-0.24529 0.549837,-0.42995 0.12678,-0.18741 0.19017,-0.40514 0.19017,-0.65319 0,-0.24804 -0.06201,-0.44786 -0.186035,-0.59944 -0.121268,-0.15159 -0.292145,-0.26734 -0.512631,-0.34727 -0.146072,-0.0524 -0.30179,-0.091 -0.467155,-0.11575 -0.162608,-0.0275 -0.377581,-0.0565 -0.644921,-0.0868 -0.19017,-0.0193 -0.345888,-0.0372 -0.467155,-0.0537 -0.118512,-0.0165 -0.223242,-0.04 -0.314193,-0.0703 -0.110241,-0.0358 -0.194301,-0.0813 -0.252181,-0.13643 -0.05512,-0.0551 -0.08268,-0.12678 -0.08268,-0.21497 0,-0.17088 0.07441,-0.30317 0.223242,-0.39688 0.151584,-0.0965 0.361046,-0.14469 0.628385,-0.14469 0.347266,0 0.633898,0.0469 0.859896,0.14056 0.225999,0.091 0.398253,0.24942 0.516764,0.47542 0.03858,0.0717 0.104731,0.10749 0.198438,0.10749 0.112999,0 0.192925,-0.0207 0.239779,-0.062 0.04685,-0.0413 0.07028,-0.11024 0.07028,-0.20671 v -0.78548 c 0,-0.0965 -0.02343,-0.16537 -0.07028,-0.20671 -0.04685,-0.0413 -0.12678,-0.062 -0.239779,-0.062 -0.112999,0 -0.192925,0.0207 -0.239779,0.062 -0.04685,0.0414 -0.07028,0.11025 -0.07028,0.20671 v 0.18603 c -0.159852,-0.14332 -0.351399,-0.25493 -0.574642,-0.33486 -0.220486,-0.0799 -0.464399,-0.11989 -0.731738,-0.11989 z m -41.556115,0.091 c -0.093706,0 -0.1612302,0.0225 -0.2025716,0.0667 -0.038585,0.0413 -0.057878,0.11248 -0.057878,0.21445 0,0.10201 0.019292,0.17556 0.057878,0.21963 0.041341,0.0413 0.108865,0.0615 0.2025716,0.0615 h 1.0459311 v 2.69544 h -1.2939779 c -0.093706,0 -0.1612303,0.0221 -0.2025716,0.0662 -0.038585,0.0413 -0.057878,0.11299 -0.057878,0.21497 0,0.102 0.019292,0.17505 0.057878,0.21911 0.041341,0.0413 0.108865,0.062 0.2025716,0.062 h 3.2411459 c 0.093706,0 0.1598522,-0.0207 0.1984375,-0.062 0.041341,-0.0441 0.062012,-0.11713 0.062012,-0.21911 0,-0.10198 -0.02067,-0.17364 -0.062012,-0.21497 -0.038585,-0.0441 -0.1047308,-0.0662 -0.1984375,-0.0662 h -1.3270509 v -2.97656 c 0,-0.10198 -0.02067,-0.17364 -0.062012,-0.21497 -0.038585,-0.0441 -0.1047307,-0.0661 -0.1984374,-0.0661 z m -13.936105,0.5085 c 0.35829,0 0.640787,0.0841 0.847493,0.25218 0.20946,0.16537 0.34313,0.40652 0.40101,0.72347 h -2.525944 c 0.0689,-0.30593 0.213596,-0.54433 0.434082,-0.7152 0.223242,-0.17364 0.504362,-0.26045 0.843359,-0.26045 z m 25.1602238,0.0124 c 0.245291,0 0.463021,0.051 0.6531897,0.15296 0.192926,0.10198 0.343132,0.25081 0.4506187,0.44649 0.110243,0.19292 0.165365,0.42168 0.165365,0.68626 0,0.26459 -0.05512,0.49472 -0.165365,0.6904 -0.1074867,0.19292 -0.2576927,0.34037 -0.4506187,0.44235 -0.1901687,0.10197 -0.4078987,0.15296 -0.6531897,0.15296 -0.2452904,0 -0.4561304,-0.0537 -0.6325184,-0.16123 -0.1763897,-0.11024 -0.3114367,-0.26183 -0.4051427,-0.45475 -0.09095,-0.19568 -0.136426,-0.41892 -0.136426,-0.66973 0,-0.2508 0.04547,-0.47267 0.136426,-0.66559 0.09371,-0.19568 0.228753,-0.34727 0.4051427,-0.45475 0.176388,-0.11025 0.387228,-0.16537 0.6325184,-0.16537 z m 25.7555312,0 c 0.245291,0 0.456131,0.0593 0.63252,0.17777 0.176389,0.11575 0.310058,0.27836 0.401009,0.48782 0.09371,0.20947 0.14056,0.45063 0.14056,0.72347 0,0.27286 -0.04685,0.51401 -0.14056,0.72347 -0.09095,0.20947 -0.22462,0.37346 -0.401009,0.49196 -0.176389,0.11576 -0.387229,0.17364 -0.63252,0.17364 -0.245291,0 -0.464399,-0.0551 -0.657324,-0.16537 -0.190169,-0.11024 -0.340375,-0.2701 -0.450618,-0.47956 -0.107487,-0.20946 -0.161231,-0.4575 -0.161231,-0.74414 0,-0.28662 0.05374,-0.53467 0.161231,-0.74414 0.110243,-0.20946 0.260449,-0.36931 0.450618,-0.47955 0.192925,-0.11025 0.412033,-0.16537 0.657324,-0.16537 z m -5.564518,1.48828 c 0.217731,0 0.434082,0.0165 0.649056,0.0496 0.214974,0.0303 0.416167,0.0758 0.603581,0.13643 v 0.45062 c -0.440973,0.45475 -0.935688,0.68212 -1.484147,0.68212 -0.250804,0 -0.446485,-0.0551 -0.587045,-0.16536 -0.137803,-0.113 -0.206705,-0.2701 -0.206705,-0.47129 0,-0.23702 0.09095,-0.40928 0.272851,-0.51676 0.184657,-0.11025 0.43546,-0.16537 0.752409,-0.16537 z m -45.371908,6.75928 c -0.151586,0 -0.254938,0.0207 -0.310058,0.062 -0.05512,0.0386 -0.08268,0.10749 -0.08268,0.20671 v 0.53743 c 0,0.0992 0.02756,0.16951 0.08268,0.21084 0.05512,0.0386 0.158474,0.0584 0.310058,0.0584 0.151586,0 0.254939,-0.0198 0.310059,-0.0584 0.05512,-0.0413 0.08268,-0.11162 0.08268,-0.21084 v -0.53743 c 0,-0.0992 -0.02756,-0.16811 -0.08268,-0.20671 -0.05512,-0.0413 -0.158475,-0.062 -0.310059,-0.062 z m 25.2263708,0.63665 c -0.2480464,0 -0.4892034,0.0414 -0.7234694,0.12403 -0.2342667,0.0799 -0.4519967,0.19292 -0.6531904,0.33899 -0.06339,0.0441 -0.09508,0.11989 -0.09508,0.22738 v 0.60772 c 0,0.0965 0.02343,0.16588 0.07028,0.20722 0.04685,0.0413 0.12678,0.0615 0.2397777,0.0615 0.113,0 0.192926,-0.0202 0.239779,-0.0615 0.04685,-0.0413 0.07028,-0.11076 0.07028,-0.20722 V 122.003 c 0.2673387,-0.15434 0.5525927,-0.23151 0.8557611,-0.23151 0.300412,0 0.5319217,0.0758 0.6945307,0.22738 0.165365,0.14883 0.248047,0.3514 0.248047,0.60771 0,0.19844 -0.05236,0.38448 -0.157096,0.55811 -0.101975,0.17088 -0.279742,0.38636 -0.5333007,0.64544 l -1.8190098,1.8433 c -0.04134,0.0441 -0.06201,0.11851 -0.06201,0.22324 0,0.102 0.01929,0.17504 0.05788,0.21911 0.04134,0.0413 0.108865,0.062 0.202572,0.062 h 2.8690719 c 0.09371,0 0.159851,-0.0207 0.198438,-0.062 0.04134,-0.0441 0.06201,-0.11713 0.06201,-0.21911 v -0.8015 c 0,-0.0965 -0.02343,-0.16589 -0.07028,-0.20723 -0.04685,-0.0413 -0.12678,-0.0615 -0.2397787,-0.0615 -0.112998,0 -0.192924,0.0202 -0.239778,0.0615 -0.04685,0.0413 -0.07028,0.11076 -0.07028,0.20723 v 0.52038 H 6.2790404 l 1.3890611,-1.40973 c 0.2948997,-0.30042 0.5112517,-0.56776 0.6490547,-0.80202 0.1405597,-0.23702 0.2108397,-0.4961 0.2108397,-0.77722 0,-0.30041 -0.06615,-0.55948 -0.1984377,-0.77721 -0.13229,-0.21773 -0.319703,-0.38309 -0.5622377,-0.49609 -0.239779,-0.11576 -0.5195207,-0.17364 -0.8392247,-0.17364 z m 5.2172492,0 c -0.352777,0 -0.662836,0.10612 -0.930176,0.31833 -0.264583,0.20947 -0.469911,0.50712 -0.615983,0.89297 -0.143316,0.3831 -0.214974,0.8282 -0.214974,1.33532 0,0.50712 0.07166,0.95222 0.214974,1.33532 0.146072,0.38309 0.3514,0.68075 0.615983,0.89297 0.264584,0.20946 0.574642,0.31419 0.930176,0.31419 0.355534,0 0.665592,-0.10473 0.930176,-0.31419 0.264583,-0.21222 0.468533,-0.50988 0.611849,-0.89297 0.146072,-0.3831 0.219108,-0.8282 0.219108,-1.33532 0,-0.50712 -0.07304,-0.95222 -0.219108,-1.33532 -0.143316,-0.38585 -0.348643,-0.6835 -0.615983,-0.89297 -0.264583,-0.21221 -0.573264,-0.31833 -0.926042,-0.31833 z m 4.936133,0 c -0.248047,0 -0.489204,0.0414 -0.72347,0.12403 -0.234267,0.0799 -0.451996,0.19292 -0.65319,0.33899 -0.06339,0.0441 -0.09509,0.11989 -0.09509,0.22738 v 0.60772 c 0,0.0965 0.02343,0.16588 0.07028,0.20722 0.04685,0.0413 0.12678,0.0615 0.239779,0.0615 0.112999,0 0.192925,-0.0202 0.239778,-0.0615 0.04685,-0.0413 0.07028,-0.11076 0.07028,-0.20722 V 122.003 c 0.26734,-0.15434 0.552593,-0.23151 0.855762,-0.23151 0.300413,0 0.531923,0.0758 0.694531,0.22738 0.165365,0.14883 0.248047,0.3514 0.248047,0.60771 0,0.19844 -0.05236,0.38448 -0.157096,0.55811 -0.101975,0.17088 -0.279742,0.38636 -0.533301,0.64544 l -1.81901,1.8433 c -0.04134,0.0441 -0.06201,0.11851 -0.06201,0.22324 0,0.102 0.01929,0.17504 0.05788,0.21911 0.04134,0.0413 0.108865,0.062 0.202571,0.062 h 2.869076 c 0.0937,0 0.159851,-0.0207 0.198437,-0.062 0.04134,-0.0441 0.06201,-0.11713 0.06201,-0.21911 v -0.8015 c 0,-0.0965 -0.02343,-0.16589 -0.07028,-0.20723 -0.04685,-0.0413 -0.126779,-0.0615 -0.239779,-0.0615 -0.112999,0 -0.192925,0.0202 -0.239778,0.0615 -0.04685,0.0413 -0.07028,0.11076 -0.07028,0.20723 v 0.52038 h -1.794206 l 1.389063,-1.40973 c 0.2949,-0.30042 0.511252,-0.56776 0.649056,-0.80202 0.14056,-0.23702 0.210839,-0.4961 0.210839,-0.77722 0,-0.30041 -0.06615,-0.55948 -0.198437,-0.77721 -0.132291,-0.21773 -0.319705,-0.38309 -0.56224,-0.49609 -0.239779,-0.11576 -0.51952,-0.17364 -0.839225,-0.17364 z m 6.469889,0 v 5.2e-4 c -0.683507,0.0303 -1.247124,0.18741 -1.690853,0.47129 -0.440972,0.28112 -0.763433,0.6339 -0.967382,1.05833 -0.201194,0.42444 -0.301791,0.87505 -0.301791,1.35186 0,0.5705 0.106109,1.03766 0.318327,1.40146 0.154341,0.26183 0.356912,0.46164 0.607715,0.59945 0.253559,0.1378 0.530544,0.2067 0.830957,0.2067 0.333485,0 0.628385,-0.0662 0.884701,-0.19843 0.259071,-0.1323 0.458886,-0.31557 0.599446,-0.54984 0.140559,-0.23702 0.21084,-0.50436 0.21084,-0.80202 0,-0.30868 -0.07028,-0.58153 -0.21084,-0.81855 -0.137804,-0.23703 -0.32935,-0.42031 -0.574642,-0.54984 -0.242534,-0.12954 -0.515386,-0.1943 -0.818554,-0.1943 -0.237023,0 -0.460266,0.051 -0.669727,0.15296 -0.209462,0.10197 -0.385851,0.24667 -0.529167,0.43408 0.07717,-0.58429 0.312815,-1.04593 0.706934,-1.38493 0.394119,-0.34174 0.957736,-0.53191 1.690853,-0.57051 0.04961,-0.003 0.08681,-0.0226 0.111621,-0.0584 0.02756,-0.0386 0.04134,-0.10059 0.04134,-0.18603 0,-0.1406 -0.02205,-0.23706 -0.06615,-0.28939 -0.04134,-0.0523 -0.09922,-0.0771 -0.173633,-0.0744 z m -11.406022,0.61185 c 0.217731,0 0.409277,0.0772 0.574642,0.23151 0.168121,0.15158 0.299034,0.37345 0.392741,0.66559 0.09371,0.28939 0.14056,0.63528 0.14056,1.03767 0,0.40238 -0.04685,0.74965 -0.14056,1.04179 -0.09371,0.28939 -0.22462,0.50988 -0.392741,0.66146 -0.165365,0.15159 -0.356911,0.2279 -0.574642,0.2279 -0.21773,0 -0.410655,-0.0763 -0.578776,-0.2279 -0.165364,-0.15158 -0.2949,-0.37207 -0.388607,-0.66146 -0.09371,-0.29214 -0.140559,-0.63941 -0.140559,-1.04179 0,-0.40239 0.04685,-0.74828 0.140559,-1.03767 0.09371,-0.29214 0.223243,-0.51401 0.388607,-0.66559 0.168121,-0.15434 0.361046,-0.23151 0.578776,-0.23151 z m -35.851041,0.47543 c -0.28112,0 -0.533301,0.0441 -0.756543,0.13229 -0.220486,0.0882 -0.394119,0.2191 -0.520899,0.39274 -0.124023,0.17088 -0.186035,0.3762 -0.186035,0.61598 0,0.22875 0.05512,0.41479 0.165365,0.55811 0.112999,0.14056 0.270095,0.2508 0.471289,0.33073 0.146072,0.0579 0.305924,0.10195 0.479557,0.13229 0.173633,0.0303 0.389985,0.0593 0.649056,0.0868 0.192925,0.0193 0.3514,0.04 0.475423,0.062 0.12678,0.0193 0.238401,0.0441 0.334863,0.0744 0.113,0.0386 0.199816,0.0882 0.26045,0.14883 0.06063,0.0606 0.09095,0.1378 0.09095,0.23151 0,0.19292 -0.08544,0.34727 -0.256315,0.46302 -0.170877,0.11576 -0.416168,0.17363 -0.735872,0.17363 -0.385852,0 -0.694532,-0.0606 -0.926042,-0.1819 -0.231511,-0.12127 -0.396875,-0.31419 -0.496094,-0.57878 -0.02481,-0.0606 -0.05374,-0.10335 -0.08682,-0.12815 -0.03307,-0.0275 -0.07855,-0.0413 -0.136426,-0.0413 -0.112999,0 -0.192925,0.0207 -0.239779,0.062 -0.04685,0.0413 -0.07028,0.11024 -0.07028,0.2067 v 0.99219 c 0,0.0965 0.02343,0.16537 0.07028,0.20671 0.04685,0.0413 0.12678,0.062 0.239779,0.062 0.112999,0 0.192925,-0.0207 0.239779,-0.062 0.04685,-0.0413 0.07028,-0.11025 0.07028,-0.20671 v -0.23151 c 0.16812,0.16812 0.365179,0.29352 0.591178,0.3762 0.225998,0.0827 0.487825,0.12403 0.785482,0.12403 0.336241,0 0.624251,-0.051 0.86403,-0.15296 0.242534,-0.10198 0.425814,-0.24529 0.549837,-0.42995 0.12678,-0.18742 0.190169,-0.40515 0.190169,-0.65319 0,-0.24805 -0.06201,-0.44787 -0.186035,-0.59945 -0.121267,-0.15159 -0.292143,-0.26734 -0.51263,-0.34726 -0.146072,-0.0524 -0.30179,-0.091 -0.467155,-0.11576 -0.162609,-0.0275 -0.377583,-0.0565 -0.644922,-0.0868 -0.190169,-0.0193 -0.345888,-0.0372 -0.467155,-0.0537 -0.118511,-0.0165 -0.223242,-0.04 -0.314193,-0.0703 -0.11024,-0.0358 -0.194301,-0.0813 -0.252181,-0.13643 -0.05512,-0.0551 -0.08268,-0.12678 -0.08268,-0.21497 0,-0.17088 0.07441,-0.30317 0.223242,-0.39687 0.151584,-0.0965 0.361046,-0.1447 0.628386,-0.1447 0.347266,0 0.633897,0.0469 0.859896,0.14056 0.225998,0.091 0.398253,0.24942 0.516764,0.47542 0.03858,0.0717 0.104731,0.10749 0.198437,0.10749 0.113,0 0.192926,-0.0207 0.239779,-0.062 0.04685,-0.0413 0.07028,-0.11025 0.07028,-0.20671 v -0.78548 c 0,-0.0965 -0.02343,-0.16537 -0.07028,-0.2067 -0.04685,-0.0413 -0.126779,-0.062 -0.239779,-0.062 -0.112999,0 -0.192925,0.0207 -0.239778,0.062 -0.04685,0.0413 -0.07028,0.11024 -0.07028,0.2067 v 0.18604 c -0.159853,-0.14332 -0.3514,-0.25494 -0.574642,-0.33487 -0.220486,-0.0799 -0.464398,-0.11988 -0.731738,-0.11988 z m 10.934735,0 v 5.1e-4 c -0.281119,0 -0.544326,0.0744 -0.789617,0.22324 -0.242535,0.14883 -0.454753,0.36381 -0.636654,0.64493 v -0.4961 c 0,-0.10198 -0.02067,-0.17364 -0.06201,-0.21497 -0.03859,-0.0441 -0.104731,-0.0661 -0.198437,-0.0661 h -0.740007 c -0.09371,0 -0.161231,0.0221 -0.202572,0.0661 -0.03858,0.0413 -0.05788,0.113 -0.05788,0.21497 0,0.10194 0.01929,0.17498 0.05788,0.21911 0.04134,0.0413 0.108865,0.0615 0.202572,0.0615 h 0.42168 v 2.69544 h -0.338998 c -0.09371,0 -0.16123,0.0225 -0.202572,0.0667 -0.03859,0.0413 -0.05788,0.113 -0.05788,0.21497 0,0.10201 0.01929,0.17505 0.05788,0.21911 0.04134,0.0413 0.108865,0.062 0.202572,0.062 h 1.339454 c 0.09371,0 0.159852,-0.0207 0.198438,-0.062 0.04134,-0.0441 0.06201,-0.11713 0.06201,-0.21911 0,-0.10198 -0.02067,-0.17364 -0.06201,-0.21497 -0.03859,-0.0441 -0.104731,-0.0667 -0.198438,-0.0667 h -0.380339 v -1.18184 c 0,-0.29215 0.06063,-0.55673 0.181901,-0.79375 0.121268,-0.23703 0.282498,-0.42358 0.483692,-0.55862 0.20395,-0.13505 0.423059,-0.20258 0.657325,-0.20258 0.220487,0 0.387229,0.0717 0.500229,0.21498 0.112999,0.14332 0.169499,0.33762 0.169499,0.58291 v 1.9389 h -0.380339 c -0.09371,0 -0.161231,0.0225 -0.202572,0.0667 -0.03858,0.0413 -0.05788,0.113 -0.05788,0.21497 0,0.10201 0.01929,0.17505 0.05788,0.21911 0.04134,0.0413 0.108865,0.062 0.202572,0.062 h 1.339454 c 0.09371,0 0.159852,-0.0207 0.198438,-0.062 0.04134,-0.0441 0.06201,-0.11713 0.06201,-0.21911 0,-0.10198 -0.02067,-0.17364 -0.06201,-0.21497 -0.03859,-0.0441 -0.104732,-0.0667 -0.198438,-0.0667 h -0.338998 v -2.00091 c 0,-0.27286 -0.04961,-0.51126 -0.148828,-0.71521 -0.09922,-0.20395 -0.241157,-0.35966 -0.425814,-0.46715 -0.184658,-0.11024 -0.402387,-0.16536 -0.653191,-0.16536 z m 4.5888694,0 c -0.3886069,0 -0.7344942,0.0868 -1.0376627,0.26044 -0.3004125,0.17364 -0.5346788,0.41204 -0.7027995,0.71521 -0.1681212,0.30316 -0.2521812,0.64492 -0.2521812,1.02526 0,0.38034 0.08268,0.72209 0.2480471,1.02526 0.1653646,0.30317 0.3982529,0.54157 0.6986653,0.7152 0.3031685,0.17363 0.6518119,0.26045 1.045931,0.26045 0.3141928,0 0.6214951,-0.0469 0.9219076,-0.14056 0.3004124,-0.0937 0.5608615,-0.22325 0.7813477,-0.38861 0.088194,-0.0634 0.1322917,-0.14332 0.1322917,-0.23978 0,-0.0634 -0.020671,-0.12953 -0.062012,-0.19843 -0.068902,-0.113 -0.1433159,-0.1695 -0.2232422,-0.1695 -0.049609,0 -0.1033528,0.022 -0.1612304,0.0661 -0.1956816,0.14883 -0.4134114,0.26321 -0.6531902,0.34313 -0.2370226,0.0772 -0.4823133,0.11576 -0.7358724,0.11576 -0.2645835,0 -0.4988497,-0.0592 -0.7027995,-0.17777 -0.2011936,-0.11851 -0.3582899,-0.2825 -0.471289,-0.49196 -0.1102432,-0.21222 -0.1653646,-0.45199 -0.1653646,-0.71933 0,-0.26458 0.059256,-0.50299 0.1777669,-0.71521 0.1185113,-0.21222 0.2824978,-0.37758 0.4919597,-0.49609 0.2094619,-0.11851 0.4464843,-0.17777 0.7110677,-0.17777 0.2452909,0 0.4547525,0.0358 0.6283854,0.10749 0.1763889,0.0716 0.3086805,0.17225 0.396875,0.30179 0.088194,0.12953 0.1322916,0.27837 0.1322916,0.44649 0,0.0965 0.023427,0.16537 0.07028,0.2067 0.046853,0.0413 0.1267795,0.062 0.2397787,0.062 0.1129991,0 0.1929253,-0.0207 0.2397786,-0.062 0.046853,-0.0413 0.07028,-0.11024 0.07028,-0.2067 v -1.1989 c 0,-0.0965 -0.023427,-0.16537 -0.07028,-0.2067 -0.046853,-0.0413 -0.1267794,-0.062 -0.2397786,-0.062 -0.1129992,0 -0.1929253,0.0207 -0.2397787,0.062 -0.046853,0.0413 -0.07028,0.11024 -0.07028,0.2067 v 0.24805 c -0.143316,-0.16536 -0.3183267,-0.29215 -0.5250325,-0.38034 -0.2039497,-0.091 -0.4285698,-0.13642 -0.6738607,-0.13642 z m 5.1345706,0 v 5.1e-4 c -0.3830948,0 -0.72347,0.0841 -1.0211263,0.25218 -0.2976566,0.16537 -0.5305447,0.39964 -0.6986654,0.7028 -0.1681208,0.30317 -0.2521811,0.65181 -0.2521811,1.04593 0,0.41342 0.07717,0.77033 0.2315105,1.07074 0.1543404,0.30041 0.3789604,0.53054 0.6738608,0.6904 0.2949001,0.15984 0.6504338,0.23977 1.0666015,0.23977 0.2921441,0 0.5829101,-0.0331 0.8722981,-0.0992 0.2893882,-0.0662 0.5401909,-0.15297 0.752409,-0.26045 0.1212674,-0.0606 0.181901,-0.14607 0.181901,-0.25632 0,-0.0469 -0.012402,-0.0992 -0.037207,-0.15709 -0.060634,-0.14607 -0.1391818,-0.21911 -0.2356446,-0.21911 -0.038585,0 -0.081304,0.0124 -0.1281576,0.0372 -0.1874132,0.1075 -0.405143,0.19432 -0.65319,0.26045 -0.248047,0.0634 -0.4988498,0.0951 -0.7524089,0.0951 -0.4106555,0 -0.7289821,-0.10473 -0.9549804,-0.31419 -0.2232423,-0.21222 -0.3445097,-0.52365 -0.3638023,-0.93431 h 2.9930991 c 0.093706,0 0.1598522,-0.0193 0.1984375,-0.0579 0.041341,-0.0386 0.062012,-0.10525 0.062012,-0.19896 -0.022049,-0.37207 -0.108865,-0.70004 -0.2604493,-0.98392 -0.1515842,-0.28663 -0.3693141,-0.50987 -0.6531901,-0.66972 -0.2811199,-0.16261 -0.6214951,-0.24391 -1.0211265,-0.24391 z m -15.118462,0.0909 -1.405599,5.1e-4 c -0.09371,0 -0.161231,0.0216 -0.202571,0.0656 -0.03859,0.0413 -0.05788,0.113 -0.05788,0.21498 0,0.10194 0.01929,0.17497 0.05788,0.2191 0.04134,0.0413 0.108864,0.062 0.202571,0.062 h 1.045931 v 2.69544 h -1.293978 c -0.09371,0 -0.161231,0.022 -0.202571,0.0661 -0.03859,0.0413 -0.05788,0.113 -0.05788,0.21498 0,0.102 0.01929,0.17504 0.05788,0.21911 0.04134,0.0413 0.108865,0.062 0.202571,0.062 h 3.241146 c 0.0937,0 0.159851,-0.0207 0.198438,-0.062 0.04134,-0.0441 0.06201,-0.11713 0.06201,-0.21911 0,-0.10198 -0.02067,-0.17364 -0.06201,-0.21498 -0.03859,-0.0441 -0.104731,-0.0661 -0.198438,-0.0661 h -1.327051 v -2.97656 c 0,-0.10198 -0.02067,-0.17365 -0.06201,-0.21498 -0.03859,-0.0441 -0.104731,-0.0661 -0.198438,-0.0661 z m 15.118462,0.50849 c 0.35829,0 0.6407877,0.0841 0.8474934,0.25218 0.2094623,0.16536 0.3431319,0.40652 0.4010092,0.72347 h -2.5259442 c 0.068902,-0.30592 0.2135961,-0.54381 0.4340823,-0.71468 0.2232422,-0.17364 0.5043618,-0.26097 0.8433593,-0.26097 z m 25.395861,0.90124 c 0.214974,0 0.399631,0.04 0.553971,0.11989 0.157097,0.0772 0.276986,0.18741 0.359668,0.33073 0.08544,0.14332 0.128158,0.31006 0.128158,0.50023 0,0.18741 -0.04272,0.35278 -0.128158,0.49609 -0.08544,0.14056 -0.206705,0.24942 -0.363802,0.32659 -0.157096,0.0772 -0.340375,0.11628 -0.549837,0.11628 -0.209462,0 -0.394119,-0.0432 -0.553971,-0.12868 -0.157096,-0.0854 -0.279742,-0.20395 -0.367937,-0.35553 -0.08544,-0.15158 -0.128157,-0.32384 -0.128157,-0.51677 0,-0.17363 0.0441,-0.32659 0.132292,-0.45888 0.09095,-0.13505 0.216351,-0.23978 0.376204,-0.3142 0.159852,-0.0772 0.340375,-0.11575 0.541569,-0.11575 z"
       style="font-size:8.46667px;font-family:'Courier Prime';-inkscape-font-specification:'Courier Prime';fill:#1a1a1a" /></g></svg>
