<?xml version="1.0" encoding="UTF-8" standalone="no"?>
<!-- Created with Inkscape (http://www.inkscape.org/) -->

<svg
   width="171.89162mm"
   height="96.575943mm"
   viewBox="0 0 171.89162 96.575943"
   version="1.1"
   id="svg1"
   xml:space="preserve"
   xmlns="http://www.w3.org/2000/svg"
   xmlns:svg="http://www.w3.org/2000/svg"><defs
     id="defs1" /><g
     id="layer1"
     transform="translate(26.951698,-32.807284)"><path
       id="path6"
       style="fill:#000000;stroke-width:0.264583"
       d="m 64.021097,32.807825 c -3.351699,-0.088 -11.078794,10.570737 -13.530957,18.038692 -0.210895,0.642271 -0.414366,1.407971 -0.603581,2.273246 -2.303961,-1.248251 -5.041922,-1.878621 -6.697266,-2.706295 -2.205112,-1.102557 -1.108746,-3.51462 -6.307108,-3.220992 -0.742623,0.04195 -1.603589,0.133682 -2.60811,0.286288 -4.823507,0.732785 -9.243826,5.064755 -12.352217,9.465055 C 22.124173,47.232167 10.90796,47.68136 9.444583,48.42651 7.8320867,49.24759 2.6886581,60.426387 2.8785755,61.590047 c 0.1899175,1.163661 1.5746558,0.616443 4.3506389,0.533301 2.7759836,-0.08314 5.0292436,11.087082 0.6800618,13.329419 -5.159789,2.660267 -8.053637,-7.777616 -8.27391355,-9.27592 -0.2202769,-1.498304 1.55329385,-4.253576 0.0248047,-5.2958 C -1.8683218,59.838823 -10.729186,73.368469 -13.57365,73.626522 c -2.844469,0.258053 -4.387344,-5.590668 -3.763078,-8.936922 0.624266,-3.346257 5.424877,-11.795143 2.922819,-12.411646 -2.502059,-0.616505 -11.958727,15.086858 -12.492261,21.292757 -0.533536,6.2059 3.709123,12.062694 8.16591,11.911418 4.456787,-0.151276 9.9337607,-6.721037 9.9337607,-6.721037 0,0 1.9454717,9.354692 10.0453816,8.451164 5.2483315,-0.585444 10.9224117,-6.238152 15.0910687,-13.708207 -0.0445,3.179089 0.455575,6.251359 1.815393,8.248592 2.688138,3.9482 9.860406,6.378404 14.44873,4.452441 5.377289,-2.257133 13.06239,-9.288449 16.629993,-13.299446 1.047337,7.251545 3.842251,13.459378 9.7007,14.055989 9.083719,0.925066 15.102626,-4.945328 18.22266,-10.774019 1.254951,4.962993 3.584526,9.010239 7.677051,10.243302 -2.964245,0.604687 -6.838079,1.829465 -12.496912,4.293795 -10.416532,4.536234 -14.784747,10.836387 -18.060913,20.664887 -3.276166,9.8285 4.499637,16.57212 16.128732,17.80925 11.844603,1.26006 21.841344,-4.28434 24.613484,-6.13244 2.772143,-1.84809 7.728221,-7.81232 6.972181,-8.14834 -0.75604,-0.33602 -4.956209,2.85584 -9.49244,4.45192 -4.536234,1.59609 -10.33229,3.78046 -21.588863,1.42834 -11.256574,-2.35212 -12.096719,-11.92868 -11.256678,-13.52476 0.840044,-1.59608 14.844652,-9.025829 21.616252,-11.283029 6.771598,-2.257201 14.731002,2.613695 27.086199,5.702499 11.50799,2.877 17.10733,0.71253 24.47293,-1.66347 7.3656,-2.376 8.90978,-8.553494 11.64218,-11.879894 2.7324,-3.3264 -7.00896,-14.13727 -9.38496,-19.958471 -2.376,-5.821201 2.31637,-13.840234 2.79157,-14.374833 0.4752,-0.534601 -0.95018,-1.781804 -1.72238,-1.781804 -0.7722,0 -10.51371,5.821153 -10.81071,7.603154 -0.297,1.782 -5.04901,12.711452 -5.52421,12.889652 -0.4752,0.178199 -1.84157,-0.772 -2.55437,-3.979602 -0.7128,-3.207599 2.25745,-16.751153 2.73265,-18.354952 0.4752,-1.603801 -0.95083,-3.860802 -2.02003,-3.979602 -1.0692,-0.118798 -2.37558,2.138609 -3.50418,3.742407 -0.92126,1.309167 -4.09858,3.607754 -6.52725,8.543665 -2.12575,-3.433366 -6.1334,-5.671768 -11.117665,-5.314921 -3.990498,0.285699 -9.814388,4.196126 -9.814388,4.196126 0,0 0.594151,-7.484589 1.425752,-11.404989 0.831599,-3.9204 2.613878,-10.335385 0.594279,-11.642183 -0.09467,-0.06126 -0.206379,-0.09329 -0.332796,-0.09715 -2.570483,-0.07859 -11.360008,11.375674 -12.379089,20.887098 -0.04042,0.377206 -0.07972,0.771437 -0.117306,1.181323 -0.390479,-0.372832 -0.803051,-0.689134 -1.232483,-0.943612 -3.207599,-1.900801 -5.526316,-4.221289 -8.525061,-3.465938 -2.127433,0.535877 -6.206339,3.465938 -6.206339,3.465938 0,0 0.118379,-5.16782 1.30638,-8.850622 0.469296,-1.606303 5.715212,-13.275608 2.639632,-13.690121 -0.05096,-0.0069 -0.103378,-0.01101 -0.156579,-0.0124 z m -31.191378,27.25105 c 0.171638,0.0071 0.321055,0.03159 0.44235,0.0739 3.655299,1.275 8.100472,3.548467 8.646501,6.415112 0.450101,2.363031 -2.041695,10.8222 -5.250842,10.836548 -5.815675,0.026 -9.702191,-6.510616 -9.870199,-8.946741 -0.168009,-2.436124 -0.383394,-4.422367 1.175639,-6.131925 1.364154,-1.495863 3.655082,-2.296745 4.856551,-2.246891 z m 31.640446,4.303613 c 0.538632,-0.01959 1.107705,-0.0028 1.701705,0.02687 2.375998,0.1188 4.573727,1.663392 5.345927,4.811592 0.7722,3.148201 1.366411,7.781298 -2.850989,7.484298 -4.2174,-0.297 -9.310006,-8.697211 -8.078577,-10.51357 0.923572,-1.36227 2.266037,-1.750422 3.881934,-1.809192 z m 27.955399,0.396875 c 1.841232,-0.0441 3.204958,0.0513 4.274158,0.348299 2.1384,0.594 2.642677,2.626768 2.523877,7.141166 -0.11881,4.5144 -2.33527,5.099851 -5.66167,3.79305 -3.3264,-1.306801 -6.347137,-7.853519 -5.369181,-9.632487 0.654076,-1.189808 2.391585,-1.605931 4.232816,-1.650028 z M 105.2222,76.796871 c 0.64692,2.616886 2.02565,4.54788 4.43022,5.056539 6.1776,1.306798 13.54336,-4.633309 13.54336,-4.633309 0,0 0.87864,2.500164 2.64273,5.94434 1.76409,3.444174 6.21624,5.712179 5.29219,6.804236 -0.92405,1.092055 -3.17653,2.196016 -11.91297,2.112016 -7.58115,-0.0729 -20.487753,-4.709071 -26.238711,-5.934005 5.774582,-1.431997 9.584691,-4.993995 12.243181,-9.349817 z" /></g></svg>
